<?xml version="1.0" encoding="utf-8"?>
<!-- Generator: Adobe Illustrator 16.0.0, SVG Export Plug-In . SVG Version: 6.00 Build 0)  -->
<!DOCTYPE svg PUBLIC "-//W3C//DTD SVG 1.1//EN" "http://www.w3.org/Graphics/SVG/1.1/DTD/svg11.dtd">
<svg version="1.1" id="Layer_1" xmlns="http://www.w3.org/2000/svg" xmlns:xlink="http://www.w3.org/1999/xlink" x="0px" y="0px"
	 width="850.39px" height="850.39px" viewBox="0 0 850.39 850.39" enable-background="new 0 0 850.39 850.39" xml:space="preserve">
<g>
	<path d="M208.505,215.229H99.139v50.512c0,16.478,0.41,27.265,1.236,32.362c0.823,5.098,2.908,8.882,6.256,11.354
		c3.345,2.472,9.705,3.707,19.077,3.707h5.407v7.106H36.886v-7.106h5.407c8.959,0,15.162-1.132,18.614-3.398
		c3.449-2.264,5.662-5.793,6.642-10.582c0.978-4.789,1.468-15.935,1.468-33.443V163.017c0-16.683-0.49-27.443-1.468-32.285
		c-0.98-4.839-3.039-8.187-6.179-10.041c-3.143-1.854-10.017-2.78-20.622-2.78h-3.862v-7.106h94.228v7.106h-3.862
		c-10.195,0-16.891,0.85-20.082,2.548c-3.193,1.699-5.329,4.866-6.411,9.5c-1.081,4.634-1.622,15.655-1.622,33.057v41.553h109.366
		v-41.553c0-16.683-0.463-27.443-1.39-32.285c-0.927-4.839-2.961-8.187-6.102-10.041c-3.143-1.854-10.017-2.78-20.622-2.78h-5.561
		v-7.106h95.309v7.106h-3.089c-10.299,0-17.045,0.85-20.236,2.548c-3.193,1.699-5.329,4.866-6.411,9.5
		c-1.081,4.634-1.622,15.655-1.622,33.057v102.724c0,16.478,0.386,27.265,1.159,32.362c0.772,5.098,2.858,8.882,6.256,11.354
		s9.782,3.707,19.154,3.707h4.789v7.106H174.83v-7.106h7.26c8.855,0,15.008-1.132,18.459-3.398
		c3.449-2.264,5.639-5.793,6.565-10.582s1.39-15.935,1.39-33.443V215.229z"/>
	<path d="M407.156,236.545h-88.204c-0.413,6.078-0.618,10.608-0.618,13.594c0,22.244,3.476,38.954,10.427,50.126
		c6.951,11.175,17.325,16.76,31.126,16.76c18.742,0,32.026-8.392,39.854-25.179h7.415c-3.297,10.504-9.835,18.718-19.618,24.638
		c-9.785,5.921-20.443,8.882-31.976,8.882c-10.712,0-20.83-2.703-30.354-8.11c-9.526-5.407-17.327-13.053-23.402-22.939
		c-6.078-9.886-9.114-21.882-9.114-35.992c0-19.978,5.87-36.583,17.61-49.817c11.74-13.231,26.415-19.85,44.024-19.85
		c16.579,0,29.4,5.047,38.463,15.138C401.851,213.891,406.64,224.806,407.156,236.545z M380.124,230.367
		c0.309-2.368,0.463-4.479,0.463-6.333c0-9.061-2.652-16.089-7.955-21.085c-5.305-4.994-11.817-7.492-19.541-7.492
		c-18.744,0-29.917,11.639-33.521,34.911H380.124z"/>
	<path d="M467.709,107.87v168.993c0,13.492,0.179,21.988,0.541,25.488c0.359,3.502,1.827,6.179,4.402,8.033
		c2.573,1.854,7.156,2.78,13.748,2.78h3.707v7.106h-67.658v-7.106h4.325c6.179,0,10.581-0.849,13.207-2.548s4.195-4.094,4.712-7.183
		c0.514-3.089,0.772-11.945,0.772-26.569V151.74c0-13.285-1.186-21.65-3.554-25.102c-2.37-3.449-8.136-5.175-17.3-5.175v-7.106
		c6.28,0,13.67-0.719,22.167-2.163c8.496-1.441,14.34-2.882,17.532-4.325H467.709z"/>
	<path d="M543.555,107.87v168.993c0,13.492,0.179,21.988,0.541,25.488c0.359,3.502,1.827,6.179,4.402,8.033
		c2.573,1.854,7.156,2.78,13.748,2.78h3.707v7.106h-67.658v-7.106h4.325c6.179,0,10.581-0.849,13.207-2.548s4.195-4.094,4.712-7.183
		c0.514-3.089,0.772-11.945,0.772-26.569V151.74c0-13.285-1.186-21.65-3.554-25.102c-2.37-3.449-8.136-5.175-17.301-5.175v-7.106
		c6.28,0,13.671-0.719,22.167-2.163c8.496-1.441,14.34-2.882,17.532-4.325H543.555z"/>
	<path d="M582.637,256.781c0-19.359,6.487-35.553,19.463-48.582c12.976-13.026,28.938-19.541,47.887-19.541
		c19.051,0,35.065,6.541,48.041,19.618c12.976,13.079,19.463,29.248,19.463,48.504c0,21.317-6.591,38.078-19.772,50.281
		c-13.183,12.204-29.094,18.305-47.731,18.305c-18.641,0-34.524-6.203-47.654-18.614
		C589.201,294.345,582.637,277.688,582.637,256.781z M608.278,257.554c0,22.452,3.654,38.181,10.968,47.191
		c7.312,9.012,17.557,13.516,30.74,13.516c13.489,0,23.812-4.504,30.972-13.516c7.156-9.01,10.735-24.74,10.735-47.191
		c0-22.244-3.553-38.102-10.658-47.577c-7.105-9.474-17.455-14.211-31.049-14.211c-13.492,0-23.815,4.711-30.972,14.134
		C611.855,219.322,608.278,235.208,608.278,257.554z"/>
	<path d="M245.269,704.998h-6.951l-63.797-172.7l-55.765,172.7h-7.415L60.83,541.875c-4.533-14.829-7.801-24.688-9.809-29.581
		c-2.008-4.89-4.634-8.496-7.878-10.813c-3.244-2.316-8.626-3.63-16.143-3.938v-7.105h78.626v7.105
		c-9.476,0.617-15.551,1.983-18.228,4.094c-2.679,2.111-4.016,5.073-4.016,8.882c0,3.398,2.163,12.102,6.488,26.105l37.382,122.033
		l54.683-168.22h8.65l61.48,168.22l31.976-111.22c4.221-15.035,6.333-24.87,6.333-29.505c0-13.593-7.26-20.39-21.78-20.39v-7.105
		h57.155v7.105c-8.445,0.617-14.728,3.733-18.846,9.346c-4.12,5.613-9.322,19.077-15.602,40.395L245.269,704.998z"/>
	<path d="M312.31,636.412c0-19.359,6.488-35.553,19.464-48.581c12.976-13.026,28.937-19.541,47.886-19.541
		c19.051,0,35.065,6.541,48.041,19.618c12.976,13.079,19.463,29.248,19.463,48.504c0,21.317-6.591,38.077-19.772,50.281
		c-13.183,12.203-29.093,18.305-47.731,18.305c-18.641,0-34.524-6.203-47.655-18.614C318.875,673.976,312.31,657.319,312.31,636.412
		z M337.953,637.185c0,22.452,3.654,38.182,10.967,47.191c7.311,9.013,17.557,13.517,30.74,13.517
		c13.49,0,23.813-4.504,30.972-13.517c7.156-9.01,10.736-24.739,10.736-47.191c0-22.244-3.553-38.102-10.659-47.577
		c-7.105-9.474-17.456-14.212-31.049-14.212c-13.492,0-23.815,4.712-30.972,14.135C341.53,598.953,337.953,614.839,337.953,637.185z
		"/>
	<path d="M511.425,600.575c3.5-9.165,9.191-16.838,17.069-23.017s15.575-9.269,23.094-9.269c6.797,0,12.15,2.112,16.065,6.333
		c3.912,4.225,5.869,8.55,5.869,12.976c0,2.988-1.004,5.562-3.012,7.724c-2.008,2.163-4.456,3.244-7.338,3.244
		c-5.15,0-9.062-3.809-11.739-11.431c-1.854-5.148-4.635-7.724-8.342-7.724c-4.429,0-9.731,3.012-15.91,9.036
		c-6.18,6.024-10.145,12.281-11.895,18.769c-1.753,6.488-2.626,15.396-2.626,26.724v22.554c0,13.492,0.179,21.987,0.54,25.487
		c0.36,3.502,1.827,6.179,4.402,8.033c2.573,1.854,7.157,2.78,13.748,2.78h4.325v7.105h-67.195v-7.105h3.244
		c6.179,0,10.581-0.85,13.207-2.549s4.195-4.094,4.712-7.184c0.514-3.089,0.772-11.944,0.772-26.568v-35.684
		c0-13.594-0.182-22.113-0.541-25.565c-0.362-3.449-1.829-6.125-4.402-8.032c-2.575-1.904-7.159-2.857-13.748-2.857h-3.244v-6.951
		c9.679-1.133,22.346-4.171,38-9.114C509.468,576.427,511.116,587.188,511.425,600.575z"/>
	<path d="M616.312,487.501v168.993c0,13.492,0.179,21.987,0.541,25.487c0.359,3.502,1.827,6.179,4.402,8.033
		c2.573,1.854,7.156,2.78,13.748,2.78h3.707v7.105h-67.658v-7.105h4.325c6.179,0,10.581-0.85,13.207-2.549s4.195-4.094,4.712-7.184
		c0.514-3.089,0.772-11.944,0.772-26.568V531.371c0-13.284-1.186-21.65-3.554-25.102c-2.37-3.449-8.136-5.175-17.301-5.175v-7.105
		c6.28,0,13.671-0.72,22.167-2.163c8.496-1.44,14.34-2.882,17.532-4.325H616.312z"/>
	<path d="M762.442,586.827v-49.432c0-13.489-0.181-21.985-0.541-25.488c-0.361-3.499-1.829-6.179-4.402-8.032
		c-2.575-1.854-7.158-2.78-13.748-2.78h-3.243v-7.105c12.459-0.31,26.105-2.472,40.935-6.488h3.244v170.074
		c0,14.728,0.256,23.688,0.772,26.878c0.514,3.193,2.136,5.562,4.866,7.105c2.727,1.545,7.801,2.317,15.215,2.317v7.105
		c-14.933,0.31-28.218,1.646-39.854,4.017c-1.236-4.842-1.854-12.459-1.854-22.862c-7.622,7.623-15.474,13.338-23.558,17.146
		c-8.085,3.809-16.451,5.716-25.102,5.716c-16.374,0-30.508-6.589-42.402-19.772c-11.895-13.181-17.842-29.143-17.842-47.887
		c0-20.596,6.075-37.252,18.228-49.972c12.15-12.717,26.62-19.077,43.407-19.077c8.547,0,16.63,1.545,24.252,4.634
		C748.437,576.014,755.646,580.647,762.442,586.827z M762.442,595.786c-6.797-5.87-13.62-10.272-20.468-13.207
		c-6.85-2.936-13.724-4.403-20.622-4.403c-11.639,0-21.344,4.48-29.118,13.439c-7.776,8.96-11.662,23.584-11.662,43.87
		c0,20.598,3.989,35.787,11.972,45.569c7.979,9.785,17.842,14.675,29.581,14.675c7.825,0,15.085-1.854,21.781-5.561
		c6.692-3.708,12.871-9.269,18.536-16.684V595.786z"/>
</g>
</svg>
