<?xml version="1.0" encoding="utf-8"?>
<!-- Generator: Adobe Illustrator 16.0.0, SVG Export Plug-In . SVG Version: 6.00 Build 0)  -->
<!DOCTYPE svg PUBLIC "-//W3C//DTD SVG 1.1//EN" "http://www.w3.org/Graphics/SVG/1.1/DTD/svg11.dtd">
<svg version="1.1" id="Layer_1" xmlns="http://www.w3.org/2000/svg" xmlns:xlink="http://www.w3.org/1999/xlink" x="0px" y="0px"
	 width="850.39px" height="850.39px" viewBox="0 0 850.39 850.39" enable-background="new 0 0 850.39 850.39" xml:space="preserve">
<path fill-rule="evenodd" clip-rule="evenodd" d="M960.078,352.572c32.08-25.722,10.04-81.081,70.002-88.41
	c-18.326,49.056-33.037,92.378-51.474,134.052c-3.17,7.179-22.279,9.852-33.874,9.474c-4.694-0.135-11.795-13.549-12.859-21.592
	c-2.064-15.494-0.608-31.471-0.608-49.772c-27.963,22.43-10.661,87.642-72.971,70.393c0-41.107-0.688-81.647,0.243-122.162
	c0.608-26.222,19.178-16.167,36.56-18.247c-2.563,30.069-4.765,56.034-7.369,86.777c33.39-23.401,17.087-81.89,72.351-87.83
	C960.078,295.688,960.078,322.423,960.078,352.572z"/>
<path fill-rule="evenodd" clip-rule="evenodd" d="M1131.082,404.043c7.705-37.544,14.331-74.278,23.264-110.419
	c2.444-9.906,12.471-26.237,17.789-25.75c26.113,2.321,52.982,6.532,76.815,16.627c5.966,2.537,8.45,36.356,0.878,43.59
	c-25.724,24.536-25.195,49.205-8.61,76.627c-46.695,18.868-36.371-29.016-56.21-41.484
	C1159.447,366.526,1180.799,427.796,1131.082,404.043z"/>
<path fill-rule="evenodd" clip-rule="evenodd" d="M764.42,363.261c-21.918,7.071-1.836,58.651-50.272,41.621
	c8.032-41.647,15.749-84.186,24.982-126.4c1.091-4.993,10.229-10.851,16.207-11.579c14.076-1.688,28.598-1.606,42.74-0.296
	c37.464,3.454,52.188,34.237,32.334,66.29c-21.295,34.387-21.295,34.387-9.526,67.504
	C808.658,407.877,808.658,407.877,764.42,363.261z"/>
<path fill-rule="evenodd" clip-rule="evenodd" d="M304.504,354.894c-29.217-10.581-46.384-4.967-47.411,27.989
	c-0.741,23.319-12.065,31.606-38.758,22.348c8.232-42.511,15.466-85.589,25.857-127.856c1.619-6.586,17.707-9.623,33.442-17.463
	c-2.429,24.454-3.994,40.122-5.586,56.169c26.558,8.015,45.344,6.342,47.342-25.967c1.376-22.158,13.077-28.408,37.814-19.015
	c-8.852,44.818-17.733,89.786-26.91,136.292c-11.189,0-20.621,0-32.754,0C299.929,389.388,302.169,372.519,304.504,354.894z"/>
<path fill-rule="evenodd" clip-rule="evenodd" d="M1325.093,261.14c-3.131,21.39-4.831,32.942-6.896,47.112
	c29.217-7.422,34.71-55.196,80.919-35.682c-61.363,37.194-45.493,84.131-17.868,131.42c-51.702,18.49-38.488-31.958-63.631-50.041
	c-6.169,13.683-9.975,27.584-18.003,38.3c-6.466,8.637-18.03,13.468-27.33,19.973c-2.847-2.672-5.694-5.371-8.528-8.07
	c8.232-41.674,15.128-83.727,25.938-124.726C1291.65,271.949,1309.627,268.724,1325.093,261.14z"/>
<path fill-rule="evenodd" clip-rule="evenodd" d="M57.846,86.439c16.167,14.332,32.334,28.665,50.121,44.427
	c20.648-28.799,40.136-55.939,60.433-84.253c23.158,16.56,27.396,27.666,8.637,47.33c-49.797,52.24-48.691,60.648,1,110.959
	c8.287,8.395,16.247,17.072,24.359,25.615c-2.388,2.861-4.763,5.723-7.139,8.583c-22.484-20.379-44.966-40.729-69.907-63.321
	c-13.334,18.731-24.507,37.625-39.057,53.415c-6.505,7.059-19.784,7.869-29.987,11.512c1.566-10.581-0.163-23.361,5.236-31.378
	c37.167-55.277,37.598-54.927-2.969-104.563c-2.982-3.644-4.4-8.528-6.546-12.849C53.973,90.083,55.902,88.248,57.846,86.439z"/>
<path fill-rule="evenodd" clip-rule="evenodd" d="M477.221,413.788c11.173-55.062,20.284-99.895,29.985-147.75
	c17.342,0,32.513-0.323,47.653,0.082c23.321,0.621,45.062,4.912,48.261,33.604c3.198,28.638-7.813,50.581-37.005,57.572
	c-25.615,6.154-51.538,8.287-54.332,43.483C511.458,404.747,494.817,407.445,477.221,413.788z M528.949,325.204
	c4.291,3.887,8.569,7.8,12.848,11.687c8.125-8.583,16.248-17.167,24.358-25.75c-5.062-4.643-10.136-9.285-15.195-13.915
	C543.631,306.552,536.29,315.864,528.949,325.204z"/>
<path fill-rule="evenodd" clip-rule="evenodd" d="M1131.175,266.093c3.914,24.912-7.045,29.96-25.79,30.635
	c-10.864,0.405-21.538,6.343-32.296,9.798c0.864,3.535,1.729,7.071,2.593,10.634c11.472,1.754,22.942,3.482,35.397,5.398
	c6.641,20.405-1.659,26.695-21.808,28.341c-10.162,0.81-19.623,10.148-29.407,15.627c1.349,3.4,2.698,6.829,4.048,10.229
	c15.534,2.132,31.08,4.292,46.643,6.424c-4.576,28.799-27.06,34.064-89.772,21.512c8.313-40.621,15.897-81.512,25.693-121.838
	c1.647-6.774,12.483-15.276,19.759-16.005C1087.773,264.715,1109.663,266.093,1131.175,266.093z"/>
<path fill-rule="evenodd" clip-rule="evenodd" d="M712.3,266.173c8.717,52.66-55.306,9.866-56.332,50.42
	c13.012,2.213,25.264,4.291,37.532,6.37c1.93,2.672,3.86,5.345,5.79,8.017c-8.502,6.343-16.572,13.442-25.642,18.84
	c-10.378,6.208-21.647,10.931-32.524,16.302c1.444,3.86,2.889,7.72,4.333,11.579c9.42,0.729,19.176,0.19,28.15,2.592
	c7.248,1.943,13.562,7.422,20.284,11.336c-6.263,5.884-12.092,16.249-18.841,16.896c-22.618,2.133-45.548,0.81-72.241,0.81
	c8.624-45.966,15.829-87.856,25.008-129.288c1.282-5.75,12.092-12.713,18.961-13.253C668.385,265.093,690.222,266.173,712.3,266.173
	z"/>
<path fill-rule="evenodd" clip-rule="evenodd" d="M487.705,270.115c-13.062,20.107-26.505,38.57-37.504,58.381
	c-9.973,17.95-20.77,36.681-24.845,56.385c-4.98,24.049-15.493,28.691-31.038,23.131c-5.629-48.125-10.879-92.905-16.304-139.342
	c45.076-12.105,28.286,30.567,41.755,49.245C444.521,307.2,437.988,250.762,487.705,270.115z"/>
</svg>
