<?xml version="1.0" encoding="utf-8"?>
<!-- Generator: Adobe Illustrator 16.0.0, SVG Export Plug-In . SVG Version: 6.00 Build 0)  -->
<!DOCTYPE svg PUBLIC "-//W3C//DTD SVG 1.1//EN" "http://www.w3.org/Graphics/SVG/1.1/DTD/svg11.dtd">
<svg version="1.1" id="Layer_1" xmlns="http://www.w3.org/2000/svg" xmlns:xlink="http://www.w3.org/1999/xlink" x="0px" y="0px"
	 width="850.39px" height="850.39px" viewBox="0 0 850.39 850.39" enable-background="new 0 0 850.39 850.39" xml:space="preserve">
<path fill="none" stroke="#000000" stroke-miterlimit="10" d="M234.206,158.558c6.324-20.761,15.263-36.365,26.812-46.818
	c11.549-10.449,25.71-15.675,42.485-15.675c18.15,0,33.515,5.948,46.096,17.84c12.581,11.898,18.872,26.368,18.872,43.416
	c0,11.413-3.646,24.956-10.931,40.63c-7.29,15.674-17.877,32.586-31.763,50.736l-9.899,12.993
	c-47.024,61.326-74.248,106.977-81.673,136.948c-8.114-30.525-35.544-76.312-82.292-137.36c-4.124-5.363-7.289-9.417-9.488-12.169
	c-13.888-18.148-24.476-35.061-31.761-50.736c-7.288-15.675-10.931-29.352-10.931-41.042c0-17.048,6.291-31.518,18.871-43.416
	c12.583-11.892,28.014-17.84,46.303-17.84c16.636,0,30.694,5.193,42.177,15.572C218.564,122.02,227.607,137.661,234.206,158.558z"/>
<path fill="none" stroke="#000000" stroke-miterlimit="10" d="M511.686,970.373c-74.992,0-138.97-26.47-191.952-79.418
	c-52.98-52.945-79.464-116.886-79.464-191.829c0-74.939,26.484-138.879,79.464-191.829c52.982-52.944,116.96-79.42,191.952-79.42
	c74.985,0,138.967,26.476,191.944,79.42c52.982,52.95,79.478,116.89,79.478,191.829c0,74.943-26.495,138.884-79.478,191.829
	C650.652,943.903,586.671,970.373,511.686,970.373z M671.397,714.136c-5.364,48.411-22.195,86.346-50.507,113.805
	c-28.307,27.468-64.711,41.195-109.205,41.195c-44.495,0-80.851-13.728-109.034-41.195c-28.196-27.459-44.969-65.394-50.325-113.805
	 M425.286,655.838c-11.872,0-21.991-4.19-30.371-12.568c-8.379-8.378-12.567-18.502-12.567-30.372
	c0-11.868,4.188-21.991,12.567-30.369c8.38-8.378,18.5-12.569,30.371-12.569c12.099,0,22.341,4.191,30.719,12.569
	c8.38,8.378,12.567,18.501,12.567,30.369c0,11.87-4.249,21.994-12.743,30.372C447.333,651.647,437.154,655.838,425.286,655.838z
	 M598.089,655.838c-11.869,0-22.057-4.19-30.549-12.568c-8.497-8.378-12.741-18.502-12.741-30.372
	c0-11.868,4.244-21.991,12.741-30.369c8.492-8.378,18.68-12.569,30.549-12.569c11.867,0,21.992,4.191,30.367,12.569
	c8.382,8.378,12.57,18.501,12.57,30.369c0,11.87-4.188,21.994-12.57,30.372C620.081,651.647,609.956,655.838,598.089,655.838z"/>
</svg>
