<?xml version="1.0" encoding="utf-8"?>
<!-- Generator: Adobe Illustrator 16.0.0, SVG Export Plug-In . SVG Version: 6.00 Build 0)  -->
<!DOCTYPE svg PUBLIC "-//W3C//DTD SVG 1.1//EN" "http://www.w3.org/Graphics/SVG/1.1/DTD/svg11.dtd">
<svg version="1.1" id="Layer_1" xmlns="http://www.w3.org/2000/svg" xmlns:xlink="http://www.w3.org/1999/xlink" x="0px" y="0px"
	 width="850.39px" height="850.39px" viewBox="0 0 850.39 850.39" enable-background="new 0 0 850.39 850.39" xml:space="preserve">
<g>
	<path d="M239.353,287.381l-177.082-24.91l16.787-51.175l189.538-14.08l33.846-103.705c7.583-23.287,19.132-34.929,34.659-34.929
		c9.024,0,16.788,2.666,23.287,7.987c6.498,5.327,9.747,12.413,9.747,21.256c0,6.681-1.718,15.345-5.145,25.994l-33.304,102.892
		l147.027,124.281l-16.788,51.176l-159.753-85.021l-34.929,106.953l36.825,76.897l-12.456,38.449l-68.504-86.376l-106.412,29.516
		l12.455-38.45l75.815-40.886L239.353,287.381z"/>
</g>
</svg>
