<?xml version="1.0" encoding="utf-8"?>
<!-- Generator: Adobe Illustrator 16.0.0, SVG Export Plug-In . SVG Version: 6.00 Build 0)  -->
<!DOCTYPE svg PUBLIC "-//W3C//DTD SVG 1.1//EN" "http://www.w3.org/Graphics/SVG/1.1/DTD/svg11.dtd">
<svg version="1.1" id="Layer_1" xmlns="http://www.w3.org/2000/svg" xmlns:xlink="http://www.w3.org/1999/xlink" x="0px" y="0px"
	 width="850.39px" height="850.39px" viewBox="0 0 850.39 850.39" enable-background="new 0 0 850.39 850.39" xml:space="preserve">
<g>
	<path d="M751.917,553.532c40.169,7.594,68.506,24.551,85.024,50.88c16.506,26.339,24.771,67.848,24.771,124.522
		c0,112.472-33.809,204.525-101.427,276.161c-67.617,71.633-154.095,107.45-259.423,107.45c-41.507,0-81.792-7.479-120.84-22.427
		c-39.06-14.948-72.639-35.818-100.756-62.597c-32.136-29.457-56.237-60.588-72.305-93.393
		c-16.066-32.804-24.101-66.382-24.101-100.756c0-38.38,8.254-68.057,24.771-89.041c16.507-20.975,42.616-35.252,78.33-42.847
		c-6.694-15.618-11.611-28.787-14.729-39.499c-3.128-10.712-4.686-18.965-4.686-24.771c0-20.085,10.596-40.608,31.799-61.593
		c21.194-20.973,41.174-31.466,59.919-31.466c8.034,0,16.507,1.455,25.44,4.353c8.922,2.908,19.184,7.699,30.796,14.394
		c-34.373-97.294-59.365-172.391-74.981-225.28c-15.629-52.889-23.432-89.375-23.432-109.46c0-27.668,7.133-49.646,21.422-65.943
		c14.28-16.287,33.694-24.436,58.245-24.436c41.948,0,95.066,93.727,159.335,281.181c11.151,32.134,19.636,56.906,25.44,74.312
		c4.905-13.829,11.821-33.474,20.754-58.914c64.27-185.665,119.606-278.503,166.03-278.503c22.762,0,40.943,7.699,54.562,23.097
		c13.609,15.397,20.42,36.047,20.42,61.926c0,19.645-7.48,55.567-22.428,107.786C804.91,400.891,782.264,469.178,751.917,553.532z
		 M272.57,826.679c6.246,7.595,14.948,18.746,26.11,33.474c29.457,40.619,56.674,60.924,81.676,60.924
		c8.473,0,16.068-2.679,22.762-8.034c6.694-5.356,10.042-10.932,10.042-16.736c0-6.696-4.467-17.848-13.39-33.475
		c-8.933-15.618-21.203-33.244-36.821-52.89c-17.856-22.762-32.699-39.384-44.521-49.876
		c-11.831-10.481-21.317-15.732-28.453-15.732c-15.627,0-30.021,8.368-43.181,25.106c-13.17,16.736-19.75,36.486-19.75,59.249
		c0,18.305,4.572,38.724,13.724,61.257c9.144,22.541,22.428,45.189,39.835,67.951c26.33,35.264,59.018,62.376,98.078,81.342
		c39.05,18.976,82.231,28.453,129.544,28.453c87.032,0,159.891-32.47,218.585-97.41c58.684-64.939,88.037-146.281,88.037-244.024
		c0-29.896-2.239-53.663-6.696-71.3c-4.466-17.626-11.83-30.461-22.092-38.495c-18.306-15.167-53.894-28.787-106.782-40.838
		c-52.888-12.05-108.12-18.075-165.695-18.075c-16.068,0-27.449,2.678-34.143,8.033c-6.696,5.356-10.043,14.509-10.043,27.448
		c0,30.356,16.956,52.335,50.88,65.944c33.914,13.619,88.811,20.419,164.692,20.419h27.449c6.243,0,11.266,2.344,15.062,7.03
		c3.787,4.686,6.359,11.716,7.699,21.088c-7.595,7.145-23.212,15.293-46.864,24.437c-23.661,9.152-41.737,18.19-54.228,27.112
		c-26.778,19.646-48.317,42.963-64.604,69.962c-16.298,27.009-24.437,52.553-24.437,76.655c0,14.729,3.453,32.469,10.378,53.223
		c6.914,20.755,10.376,33.59,10.376,38.495v4.687l-1.338,6.025c-19.646-1.34-35.148-12.825-46.529-34.479
		c-11.382-21.642-17.072-50.545-17.072-86.697v-6.024c-3.577,3.127-7.029,5.356-10.376,6.694c-3.348,1.338-7.03,2.008-11.046,2.008
		c-4.019,0-7.814-0.334-11.383-1.004c-3.576-0.67-7.595-1.674-12.05-3.012c1.338,4.916,2.344,9.706,3.012,14.394
		c0.67,4.687,1.005,8.368,1.005,11.046c0,16.518-6.476,30.691-19.415,42.512c-12.949,11.83-28.348,17.742-46.193,17.742
		c-28.119,0-56.688-13.725-85.694-41.173c-29.018-27.45-43.517-54.334-43.517-80.674c0-4.905,0.555-9.258,1.674-13.054
		C267.989,832.6,269.892,829.356,272.57,826.679z M473.414,842.746c7.584,0,14.499-3.451,20.754-10.376
		c6.244-6.915,9.373-14.395,9.373-22.429c0-8.473-6.141-28.222-18.411-59.249c-12.28-31.016-27.562-61.477-45.858-91.384
		c-13.39-22.312-26.561-39.163-39.5-50.545c-12.95-11.381-25.219-17.072-36.821-17.072c-9.372,0-19.749,5.921-31.13,17.742
		c-11.38,11.829-17.072,22.877-17.072,33.139c0,10.712,5.576,26.779,16.738,48.203c11.151,21.423,26.108,44.185,44.854,68.285
		c19.634,26.342,38.161,46.865,55.567,61.594C449.313,835.383,463.142,842.746,473.414,842.746z M539.023,519.389L466.72,310.511
		c-18.746-53.109-33.255-87.807-43.517-104.104c-10.273-16.287-21.423-24.437-33.475-24.437c-9.372,0-16.967,3.578-22.761,10.712
		c-5.806,7.145-8.704,16.737-8.704,28.788c0,20.534,7.804,56.236,23.433,107.116c15.618,50.881,39.048,117.609,70.295,200.174
		c2.679-4.906,6.464-8.368,11.381-10.377c4.905-2.009,11.602-3.013,20.084-3.013c2.678,0,8.034,0.23,16.068,0.67
		C507.557,516.49,520.717,517.61,539.023,519.389z M614.675,722.24c-19.196-0.89-37.388-2.897-54.563-6.026
		c-17.187-3.117-33.589-7.583-49.206-13.388c7.133,14.289,13.493,28.566,19.08,42.847c5.575,14.289,10.147,28.347,13.724,42.177
		c10.713-13.391,21.979-25.546,33.809-36.487C589.34,740.431,601.724,730.725,614.675,722.24z M703.715,542.15
		c29.896-81.227,53.223-148.29,69.959-201.179c16.738-52.888,25.106-85.358,25.106-97.409c0-12.94-2.792-22.982-8.368-30.127
		c-5.587-7.133-13.285-10.711-23.098-10.711c-12.499,0-25.22,10.377-38.159,31.13c-12.951,20.753-27.229,54.123-42.847,100.087
		l-66.947,193.479L703.715,542.15z"/>
</g>
</svg>
