<?xml version="1.0" encoding="utf-8"?>
<!-- Generator: Adobe Illustrator 16.0.0, SVG Export Plug-In . SVG Version: 6.00 Build 0)  -->
<!DOCTYPE svg PUBLIC "-//W3C//DTD SVG 1.1//EN" "http://www.w3.org/Graphics/SVG/1.1/DTD/svg11.dtd">
<svg version="1.1" id="Ebene_1" xmlns="http://www.w3.org/2000/svg" xmlns:xlink="http://www.w3.org/1999/xlink" x="0px" y="0px"
	 width="1700.79px" height="1700.79px" viewBox="0 0 1700.79 1700.79" enable-background="new 0 0 1700.79 1700.79"
	 xml:space="preserve">
<path fill="#FFFFFF" stroke="#000000" stroke-width="2" stroke-miterlimit="10" d="M226.694,425.755
	c0,0,369.388,302.041,426.531,232.653s318.367-159.184,318.367-159.184s181.633-63.114,212.245,48.035
	s234.693,49.924,234.693,49.924s106.122-318.368,0-330.612s-414.286-269.388-340.816-89.796s224.491,114.286,226.531,187.755
	s259.183,181.632,2.04,73.469S681.796,354.327,1092,284.939S783.837,113.51,694.041,215.551s-238.775,93.877-265.306,65.306
	s95.918,334.694-26.531,197.959s-175.51-228.571-175.51-228.571s-106.123,55.102-79.592,104.082S226.694,425.755,226.694,425.755z"
	/>
</svg>
