<?xml version="1.0" encoding="utf-8"?>
<!-- Generator: Adobe Illustrator 16.0.0, SVG Export Plug-In . SVG Version: 6.00 Build 0)  -->
<!DOCTYPE svg PUBLIC "-//W3C//DTD SVG 1.1//EN" "http://www.w3.org/Graphics/SVG/1.1/DTD/svg11.dtd">
<svg version="1.1" id="Layer_1" xmlns="http://www.w3.org/2000/svg" xmlns:xlink="http://www.w3.org/1999/xlink" x="0px" y="0px"
	 width="841.891px" height="595.279px" viewBox="0 0 841.891 595.279" enable-background="new 0 0 841.891 595.279"
	 xml:space="preserve">
<polyline fill="none" stroke="#232322" stroke-miterlimit="10" points="434,-86 272,270 281,609 339,680 478,680 535,606 571,286 
	434,-86 "/>
<path fill="none" stroke="#232322" stroke-miterlimit="10" d="M400.495-12.371c0,0,11.697,10.272,61.447,2.854"/>
<path fill="none" stroke="#232322" stroke-miterlimit="10" d="M339,680V334c0,0-34-99-67-64"/>
<path fill="none" stroke="#232322" stroke-miterlimit="10" d="M339,334c0,0,72.668-85.332,163.002,6.334
	c0,0,36.664-106.334,68.998-54.334"/>
<line fill="none" stroke="#232322" stroke-miterlimit="10" x1="502.002" y1="340.334" x2="478" y2="680"/>
<polygon fill="none" stroke="#232322" stroke-miterlimit="10" points="281.333,452.666 305.5,477.506 329.334,502 329.334,598.334 
	281.333,542 "/>
<line fill="none" stroke="#232322" stroke-miterlimit="10" x1="304.347" y1="569.01" x2="304.347" y2="476.32"/>
<line fill="none" stroke="#232322" stroke-miterlimit="10" x1="281.333" y1="499.666" x2="329.334" y2="551"/>
<polygon fill="none" stroke="#232322" stroke-miterlimit="10" points="351.334,608 467.668,610.334 474.334,513 412.834,511.584 
	351.334,510.166 "/>
<line fill="none" stroke="#232322" stroke-miterlimit="10" x1="409.668" y1="607.334" x2="412.834" y2="511.584"/>
<path fill="none" stroke="#232322" stroke-miterlimit="10" d="M470.952,562.375"/>
<polyline fill="none" stroke="#040506" stroke-miterlimit="10" points="411.971,537.666 376.668,537.666 351.334,559.459 
	470.952,562.375 "/>
<polygon fill="none" stroke="#232322" stroke-miterlimit="10" points="496.668,505.332 546.668,457 538.668,546.332 490,600.666 "/>
<line fill="none" stroke="#232322" stroke-miterlimit="10" x1="522.429" y1="480.431" x2="516.302" y2="571.304"/>
<line fill="none" stroke="#232322" stroke-miterlimit="10" x1="493.36" y1="552.621" x2="542.307" y2="505.694"/>
</svg>
