<?xml version="1.0" encoding="utf-8"?>
<!-- Generator: Adobe Illustrator 16.0.0, SVG Export Plug-In . SVG Version: 6.00 Build 0)  -->
<!DOCTYPE svg PUBLIC "-//W3C//DTD SVG 1.1//EN" "http://www.w3.org/Graphics/SVG/1.1/DTD/svg11.dtd">
<svg version="1.1" id="Ebene_1" xmlns="http://www.w3.org/2000/svg" xmlns:xlink="http://www.w3.org/1999/xlink" x="0px" y="0px"
	 width="1700.79px" height="1700.79px" viewBox="0 0 1700.79 1700.79" enable-background="new 0 0 1700.79 1700.79"
	 xml:space="preserve">
<path fill="none" stroke="#E30613" stroke-miterlimit="10" d="M905.581,767.18"/>
<g>
	<path fill="none" stroke="#E30613" stroke-miterlimit="10" d="M793.398,720.414l61.25,1.042c0,0,49.452,9.712,40.104,52.943
		l43.316-33.69l-43.316,33.69c0,0-1.26,48.488-48.186,52.098c-46.926,3.609-86.576-52.098-82.359-83.146
		c2.493-18.353-31.089-16.678-30.688-2.642c0.277,9.696-22.084,84.055-86.633,75.804c-19.755-2.525-46.525-30.081-42.113-58.958
		l-13.235-2.406l13.235,2.406c0,0-4.122-46.018,50.536-42.113c50.535,3.609,54.422,4.195,54.422,4.195s14.162-1.789,23.788,21.073
		l30.427,2.12C763.539,733.932,793.398,720.414,793.398,720.414l-87.554-1.363"/>
</g>
<path fill="none" stroke="#E30613" stroke-miterlimit="10" d="M713.465,764.373c0,0-36.899-27.273-50.535-24.867
	c-13.637,2.406-30.482,10.429-30.482,12.835s10.429-22.86,21.257-23.262c10.829-0.402,30.081-2.406,39.707,6.016
	c9.626,8.423,26.873,24.064,26.471,27.674c-0.401,3.61-44.117,26.873-51.738,25.268c-7.622-1.605-35.47-10.481-27.274-26.873
	c3.61-7.219,5.213-1.604,7.219-0.401c0,0,5.614,4.813,12.433,4.813c6.819,0,40.107-4.012,42.113-4.412
	c2.006-0.401,27.71,4.825-9.626,8.824c-22.459,2.407-13.637,4.411-32.487,2.808c-18.85-1.604-17.646-9.226-17.646-9.226"/>
<path fill="none" stroke="#E30613" stroke-miterlimit="10" d="M788.468,761.164c0,0,22.46-17.245,34.09-16.443
	c11.631,0.801,38.102,17.246,39.306,19.652c1.203,2.406-32.086,10.026-40.509,9.626
	C812.933,773.598,788.468,761.164,788.468,761.164z"/>
<path fill="none" stroke="#E30613" stroke-miterlimit="10" d="M774.028,756.752c0,0,26.872-29.278,47.326-30.081
	c20.455-0.803,50.938,30.882,53.345,32.888c2.406,2.006-17.247,55.35-45.723,46.525s-57.354-39.707-53.745-42.113
	c3.611-2.407,52.539,39.706,63.77,25.668"/>
<ellipse fill="none" stroke="#E30613" stroke-miterlimit="10" cx="817.545" cy="759.761" rx="10.629" ry="12.233"/>
<ellipse fill="none" stroke="#E30613" stroke-miterlimit="10" cx="663.13" cy="752.943" rx="11.43" ry="12.233"/>
<g>
	<path fill="none" stroke="#E30613" stroke-miterlimit="10" d="M793.801,718.007l61.249,1.042c0,0,49.453,9.712,40.104,52.943
		l43.316-33.69l-43.316,33.69c0,0-1.259,48.487-48.186,52.097c-46.926,3.61-86.576-52.097-82.358-83.146
		c2.492-18.353-31.089-16.679-30.688-2.642c0.277,9.696-22.083,84.055-86.632,75.804c-19.754-2.525-46.525-30.081-42.113-58.958
		l-13.236-2.407l13.236,2.407c0,0-4.122-46.018,50.535-42.113c50.536,3.609,54.423,4.194,54.423,4.194s14.161-1.788,23.787,21.073
		l30.428,2.12C763.94,731.526,793.801,718.007,793.801,718.007l-87.554-1.363"/>
</g>
<path fill="none" stroke="#E30613" stroke-miterlimit="10" d="M712.463,776.204c0,0-30.685,22.197-49.935,22.861
	c-17.446,0.602-43.917-22.26-37.3-28.877"/>
<path fill="none" stroke="#E30613" stroke-miterlimit="10" d="M718.331,844.478c0,19.78,23.275,24.163,28.074,24.528
	c10.429,0.791,32.087-15.033,28.076-27.692"/>
<path fill="none" stroke="#E30613" stroke-miterlimit="10" d="M770.107,859.474c0,0,10.427,4.813,16.044,0
	c5.614-4.813,6.415-18.451-7.22-32.086"/>
<path fill="none" stroke="#E30613" stroke-miterlimit="10" d="M721.109,859.963c-2.445,4.402-19.071,1.956-20.049-10.758
	s19.071-26.408,19.071-26.408s8.174-25.136,9.779-53.211"/>
<path fill="none" stroke="#E30613" stroke-miterlimit="10" d="M781.747,821.331c0,0,35.209,59.171,49.88,62.106"/>
<path fill="none" stroke="#E30613" stroke-miterlimit="10" d="M716.221,817.907c0,0-50.858,66.017-60.639,66.507"/>
<path fill="none" stroke="#E30613" stroke-miterlimit="10" d="M816.47,913.266c0,0-46.459-8.801-50.37-8.312
	c-3.912,0.489-32.765,4.888-44.501,0.489c-11.736-4.404-36.187,9.291-38.632,10.758s18.583,29.341,33.742,30.807
	c15.159,1.467,56.237-0.488,56.237-0.488S817.938,923.047,816.47,913.266z"/>
<path fill="none" stroke="#E30613" stroke-miterlimit="10" d="M809.624,917.668c2.519-0.484-36.678,14.67-122.218,2.895"/>
<path fill="none" stroke="#E30613" stroke-miterlimit="10" d="M777.837,956.299c0,0-75.925-4.778-80.814,5
	c-4.889,9.781-39.974,45.859,11.862,57.596c51.836,11.736,93.401-0.491,99.272-4.404c5.865-3.91,44.01-44.986,31.296-67.973
	c-12.714-22.984-8.315-13.691-8.315-13.691"/>
<path fill="none" stroke="#E30613" stroke-miterlimit="10" d="M808.157,1014.49c0,0,103.494-49.85,106.114-152.082
	c0.489-19.079,48.538,31.887,53.878-108.865c0.712-18.772-34.316,5.187-33.827,8.609S915.74,556.765,749.473,559.21
	c-111.484,1.639-132.036,27.874-155.997,188.761c0,0-13.568,79.37,18.519,108.247c0,0-5.615,62.568,55.349,125.939l1.606,48.125"/>
<path fill="none" stroke="#E30613" stroke-miterlimit="10" d="M735.892,813.453c0,0-6.049,2.431-7.148,4.517"/>
<path fill="none" stroke="#E30613" stroke-miterlimit="10" d="M642.476,557.014c34.492-63.371,67.381-35.294,113.104-8.021
	c0,0,145.992-13.637,185.297,198.131"/>
<path fill="none" stroke="#E30613" stroke-miterlimit="10" d="M593.476,747.972c0,0-34.509-23.233-5.546-132.4
	c10.428-39.306-13.636-6.417,4.813-48.932c0,0,85.833-93.852,202.945-81.018c117.113,12.835,193.788,188.296,177.274,279.149"/>
<path fill="none" stroke="#E30613" stroke-miterlimit="10" d="M936.065,780.815c0,0-6.415,47.325-10.427,46.524
	s9.626-9.626,9.626-9.626S972.163,789.639,936.065,780.815z"/>
<line fill="none" stroke="#E30613" stroke-miterlimit="10" x1="896.759" y1="932.422" x2="903.177" y2="994.186"/>
<path fill="none" stroke="#E30613" stroke-miterlimit="10" d="M901.574,1026.273c40.909-32.088,7.76-64.793,0-67.381
	c-2.406-0.803-2.406,7.219-1.605,8.021c37.914,37.912-101.071,105.883-101.071,105.883s15.394,0.476,20.056,18.451
	c5.612,21.658,15.499,58.342,34.492,60.963c23.261,3.207,86.632-92.246,88.235-96.258c1.603-4.012-12.834,5.613-20.054-59.361"/>
<path fill="none" stroke="#E30613" stroke-miterlimit="10" d="M751.567,1081.623c0,0-27.272-4.01-23.262,41.713
	c4.01,45.723-10.429,42.512-10.429,42.512s-65.775-46.521-66.578-79.412c-0.803-32.887-0.803-74.601-0.803-74.601
	s12.836-19.251,13.638-12.833c0.801,6.418-3.209,22.459,0.801,26.471c4.011,4.012,45.6,40.08,87.436,50.535
	C758.787,1077.613,754.775,1081.623,751.567,1081.623z"/>
<path fill="none" stroke="#E30613" stroke-miterlimit="10" d="M746.756,1082.426c0,0,52.94-4.812,57.754-7.219"/>
<path fill="none" stroke="#E30613" stroke-miterlimit="10" d="M818.948,1097.666c0,0-27.274,13.637-28.073,21.658
	c-0.804,8.021-9.626,19.252-9.626,31.283c0,12.033,23.261,16.043,35.293,70.59"/>
<path fill="none" stroke="#E30613" stroke-miterlimit="10" d="M730.712,1102.479c0,0,27.273,8.824,27.273,16.846
	s-5.615,32.889-9.625,40.109c-4.011,7.219-5.616,40.906,0,61.764"/>
</svg>
